<?xml version="1.0" encoding="iso-8859-1"?>
<!-- Generator: Adobe Illustrator 19.0.0, SVG Export Plug-In . SVG Version: 6.00 Build 0)  -->
<svg version="1.1" id="Layer_1" xmlns="http://www.w3.org/2000/svg" xmlns:xlink="http://www.w3.org/1999/xlink" x="0px" y="0px"
	 viewBox="0 0 512 512" style="enable-background:new 0 0 512 512;" xml:space="preserve">
<g>
	<g>
		<path style="fill:#E4E5E6;" d="M256,229.517c-4.873,0-8.828-3.946-8.828-8.828V52.966c0-4.882,3.955-8.828,8.828-8.828
			s8.828,3.946,8.828,8.828V220.69C264.828,225.571,260.873,229.517,256,229.517"/>
		<path style="fill:#E4E5E6;" d="M256,114.759c-2.26,0-4.52-0.865-6.241-2.586l-44.138-44.138c-3.452-3.452-3.452-9.031,0-12.482
			c3.452-3.452,9.031-3.452,12.482,0L256,93.449l37.897-37.897c3.452-3.452,9.031-3.452,12.482,0c3.452,3.452,3.452,9.031,0,12.482
			l-44.138,44.138C260.52,113.894,258.26,114.759,256,114.759"/>
		<path style="fill:#E4E5E6;" d="M256,194.207c-2.26,0-4.52-0.865-6.241-2.586l-26.483-26.483c-3.452-3.452-3.452-9.031,0-12.482
			c3.452-3.452,9.031-3.452,12.482,0L256,172.897l20.242-20.242c3.452-3.452,9.031-3.452,12.482,0c3.452,3.452,3.452,9.031,0,12.482
			l-26.483,26.483C260.52,193.342,258.26,194.207,256,194.207"/>
		<path style="fill:#E4E5E6;" d="M273.655,141.241h-35.31c-4.873,0-8.828-3.946-8.828-8.828c0-4.882,3.955-8.828,8.828-8.828h35.31
			c4.873,0,8.828,3.946,8.828,8.828C282.483,137.295,278.528,141.241,273.655,141.241"/>
		<path style="fill:#E4E5E6;" d="M256,467.862c-4.873,0-8.828-3.946-8.828-8.828V291.31c0-4.882,3.955-8.828,8.828-8.828
			s8.828,3.946,8.828,8.828v167.724C264.828,463.916,260.873,467.862,256,467.862"/>
		<path style="fill:#E4E5E6;" d="M300.138,459.034c-2.26,0-4.52-0.865-6.241-2.586L256,418.551l-37.897,37.897
			c-3.452,3.452-9.031,3.452-12.482,0c-3.452-3.452-3.452-9.031,0-12.482l44.138-44.138c3.452-3.452,9.031-3.452,12.482,0
			l44.138,44.138c3.452,3.452,3.452,9.031,0,12.482C304.658,458.169,302.398,459.034,300.138,459.034"/>
		<path style="fill:#E4E5E6;" d="M282.483,361.931c-2.26,0-4.52-0.865-6.241-2.586L256,339.103l-20.242,20.242
			c-3.452,3.452-9.031,3.452-12.482,0c-3.452-3.452-3.452-9.031,0-12.482l26.483-26.483c3.452-3.452,9.031-3.452,12.482,0
			l26.483,26.483c3.452,3.452,3.452,9.031,0,12.482C287.003,361.066,284.743,361.931,282.483,361.931"/>
		<path style="fill:#E4E5E6;" d="M273.655,388.414h-35.31c-4.873,0-8.828-3.946-8.828-8.828c0-4.882,3.955-8.828,8.828-8.828h35.31
			c4.873,0,8.828,3.946,8.828,8.828C282.483,384.468,278.528,388.414,273.655,388.414"/>
		<path style="fill:#E4E5E6;" d="M223.276,249.759c-2.26,0-4.52-0.865-6.241-2.586L91.93,122.068c-3.452-3.443-3.452-9.031,0-12.482
			c3.452-3.452,9.039-3.452,12.482,0L229.517,234.69c3.452,3.452,3.452,9.031,0,12.482
			C227.796,248.894,225.536,249.759,223.276,249.759"/>
		<path style="fill:#E4E5E6;" d="M141.241,167.724H79.448c-4.873,0-8.828-3.946-8.828-8.828c0-4.882,3.955-8.828,8.828-8.828h52.966
			V97.103c0-4.882,3.955-8.828,8.828-8.828s8.828,3.946,8.828,8.828v61.793C150.069,163.778,146.114,167.724,141.241,167.724"/>
		<path style="fill:#E4E5E6;" d="M194.207,220.69h-35.31c-4.873,0-8.828-3.946-8.828-8.828c0-4.882,3.955-8.828,8.828-8.828h26.483
			v-26.483c0-4.882,3.955-8.828,8.828-8.828s8.828,3.946,8.828,8.828v35.31C203.034,216.744,199.08,220.69,194.207,220.69"/>
		<path style="fill:#E4E5E6;" d="M150.069,194.207c-2.26,0-4.52-0.865-6.241-2.586c-3.452-3.452-3.452-9.031,0-12.482l17.655-17.655
			c3.452-3.452,9.031-3.452,12.482,0s3.452,9.031,0,12.482L156.31,191.62C154.589,193.342,152.329,194.207,150.069,194.207"/>
		<path style="fill:#E4E5E6;" d="M288.724,249.759c-2.26,0-4.52-0.865-6.241-2.586c-3.452-3.452-3.452-9.031,0-12.482
			l125.105-125.105c3.443-3.452,9.031-3.452,12.482,0c3.452,3.452,3.452,9.039,0,12.482L294.965,247.172
			C293.244,248.894,290.984,249.759,288.724,249.759"/>
		<path style="fill:#E4E5E6;" d="M432.552,167.724h-61.793c-4.873,0-8.828-3.946-8.828-8.828V97.103
			c0-4.882,3.955-8.828,8.828-8.828c4.873,0,8.828,3.946,8.828,8.828v52.966h52.966c4.873,0,8.828,3.946,8.828,8.828
			C441.379,163.778,437.425,167.724,432.552,167.724"/>
		<path style="fill:#E4E5E6;" d="M353.103,220.69h-35.31c-4.873,0-8.828-3.946-8.828-8.828v-35.31c0-4.882,3.955-8.828,8.828-8.828
			c4.873,0,8.828,3.946,8.828,8.828v26.483h26.483c4.873,0,8.828,3.946,8.828,8.828C361.931,216.744,357.976,220.69,353.103,220.69"
			/>
		<path style="fill:#E4E5E6;" d="M361.931,194.207c-2.26,0-4.52-0.865-6.241-2.586l-17.655-17.655
			c-3.452-3.452-3.452-9.031,0-12.482c3.452-3.452,9.031-3.452,12.482,0l17.655,17.655c3.452,3.452,3.452,9.031,0,12.482
			C366.451,193.342,364.191,194.207,361.931,194.207"/>
		<path style="fill:#E4E5E6;" d="M413.828,405c-2.26,0-4.52-0.865-6.241-2.586l-121.22-121.22c-3.452-3.452-3.452-9.039,0-12.482
			c3.443-3.452,9.031-3.452,12.482,0l121.22,121.22c3.452,3.452,3.452,9.031,0,12.482C418.347,404.135,416.087,405,413.828,405"/>
		<path style="fill:#E4E5E6;" d="M370.759,423.724c-4.873,0-8.828-3.946-8.828-8.828v-61.793c0-4.882,3.955-8.828,8.828-8.828
			h61.793c4.873,0,8.828,3.946,8.828,8.828c0,4.882-3.955,8.828-8.828,8.828h-52.966v52.966
			C379.586,419.778,375.631,423.724,370.759,423.724"/>
		<path style="fill:#E4E5E6;" d="M317.793,344.276c-4.873,0-8.828-3.946-8.828-8.828v-35.31c0-4.882,3.955-8.828,8.828-8.828h35.31
			c4.873,0,8.828,3.946,8.828,8.828c0,4.882-3.955,8.828-8.828,8.828h-26.483v26.483
			C326.621,340.33,322.666,344.276,317.793,344.276"/>
		<path style="fill:#E4E5E6;" d="M344.276,353.103c-2.26,0-4.52-0.865-6.241-2.586c-3.452-3.452-3.452-9.031,0-12.482l17.655-17.655
			c3.452-3.452,9.031-3.452,12.482,0s3.452,9.031,0,12.482l-17.655,17.655C348.796,352.238,346.536,353.103,344.276,353.103"/>
		<path style="fill:#E4E5E6;" d="M98.172,405c-2.26,0-4.52-0.865-6.241-2.586c-3.452-3.452-3.452-9.031,0-12.482l125.105-125.105
			c3.443-3.452,9.031-3.452,12.482,0c3.452,3.452,3.452,9.039,0,12.482L104.414,402.413C102.692,404.135,100.432,405,98.172,405"/>
		<path style="fill:#E4E5E6;" d="M141.241,423.724c-4.873,0-8.828-3.946-8.828-8.828v-52.966H79.448
			c-4.873,0-8.828-3.946-8.828-8.828c0-4.882,3.955-8.828,8.828-8.828h61.793c4.873,0,8.828,3.946,8.828,8.828v61.793
			C150.069,419.778,146.114,423.724,141.241,423.724"/>
		<path style="fill:#E4E5E6;" d="M194.207,344.276c-4.873,0-8.828-3.946-8.828-8.828v-26.483h-26.483
			c-4.873,0-8.828-3.946-8.828-8.828c0-4.882,3.955-8.828,8.828-8.828h35.31c4.873,0,8.828,3.946,8.828,8.828v35.31
			C203.034,340.33,199.08,344.276,194.207,344.276"/>
		<path style="fill:#E4E5E6;" d="M167.724,353.103c-2.26,0-4.52-0.865-6.241-2.586l-17.655-17.655
			c-3.452-3.452-3.452-9.031,0-12.482c3.452-3.452,9.031-3.452,12.482,0l17.655,17.655c3.452,3.452,3.452,9.031,0,12.482
			C172.244,352.238,169.984,353.103,167.724,353.103"/>
		<path style="fill:#E4E5E6;" d="M215.84,264.828H53.677c-5.27,0-9.543-3.946-9.543-8.828s4.273-8.828,9.543-8.828H215.84
			c5.27,0,9.543,3.946,9.543,8.828S221.11,264.828,215.84,264.828"/>
		<path style="fill:#E4E5E6;" d="M61.793,308.966c-2.26,0-4.52-0.865-6.241-2.586c-3.452-3.452-3.452-9.031,0-12.482L93.449,256
			l-37.897-37.897c-3.452-3.452-3.452-9.031,0-12.482c3.452-3.452,9.031-3.452,12.482,0l44.138,44.138
			c3.452,3.452,3.452,9.031,0,12.482l-44.138,44.138C66.313,308.1,64.053,308.966,61.793,308.966"/>
		<path style="fill:#E4E5E6;" d="M167.724,282.483c-2.26,0-4.52-0.865-6.241-2.586c-3.452-3.452-3.452-9.031,0-12.482L172.897,256
			l-11.414-11.414c-3.452-3.452-3.452-9.031,0-12.482c3.452-3.452,9.031-3.452,12.482,0l17.655,17.655
			c3.452,3.452,3.452,9.031,0,12.482l-17.655,17.655C172.244,281.618,169.984,282.483,167.724,282.483"/>
		<path style="fill:#E4E5E6;" d="M132.414,282.483c-4.873,0-8.828-3.946-8.828-8.828v-35.31c0-4.882,3.955-8.828,8.828-8.828
			c4.873,0,8.828,3.946,8.828,8.828v35.31C141.241,278.537,137.287,282.483,132.414,282.483"/>
		<path style="fill:#E4E5E6;" d="M458.105,264.828H292.243c-5.394,0-9.763-3.946-9.763-8.828s4.37-8.828,9.763-8.828h165.861
			c5.385,0,9.754,3.946,9.754,8.828S463.49,264.828,458.105,264.828"/>
		<path style="fill:#E4E5E6;" d="M450.207,308.966c-2.26,0-4.52-0.865-6.241-2.586l-44.138-44.138
			c-3.452-3.452-3.452-9.031,0-12.482l44.138-44.138c3.452-3.452,9.031-3.452,12.482,0c3.452,3.452,3.452,9.031,0,12.482
			L418.551,256l37.897,37.897c3.452,3.452,3.452,9.031,0,12.482C454.727,308.1,452.467,308.966,450.207,308.966"/>
		<path style="fill:#E4E5E6;" d="M344.276,282.483c-2.26,0-4.52-0.865-6.241-2.586l-17.655-17.655
			c-3.452-3.452-3.452-9.031,0-12.482l17.655-17.655c3.452-3.452,9.031-3.452,12.482,0c3.452,3.452,3.452,9.031,0,12.482
			L339.103,256l11.414,11.414c3.452,3.452,3.452,9.031,0,12.482C348.796,281.618,346.536,282.483,344.276,282.483"/>
		<path style="fill:#E4E5E6;" d="M379.586,282.483c-4.873,0-8.828-3.946-8.828-8.828v-35.31c0-4.882,3.955-8.828,8.828-8.828
			s8.828,3.946,8.828,8.828v35.31C388.414,278.537,384.459,282.483,379.586,282.483"/>
	</g>
	<g>
		<polygon style="fill:#CFD2CF;" points="300.138,229.517 300.138,282.483 256,308.966 211.862,282.483 211.862,229.517 
			256,203.034 		"/>
		<path style="fill:#CFD2CF;" d="M282.483,26.483C282.483,11.855,270.627,0,256,0c-14.627,0-26.483,11.855-26.483,26.483
			S241.373,52.966,256,52.966C270.627,52.966,282.483,41.11,282.483,26.483"/>
		<path style="fill:#CFD2CF;" d="M229.517,485.517C229.517,500.145,241.373,512,256,512c14.627,0,26.483-11.855,26.483-26.483
			S270.627,459.034,256,459.034C241.373,459.034,229.517,470.89,229.517,485.517"/>
		<path style="fill:#CFD2CF;" d="M105.931,97.103c0-14.627-11.855-26.483-26.483-26.483S52.966,82.476,52.966,97.103
			s11.855,26.483,26.483,26.483S105.931,111.731,105.931,97.103"/>
		<path style="fill:#CFD2CF;" d="M432.552,123.586c14.627,0,26.483-11.855,26.483-26.483s-11.855-26.483-26.483-26.483
			s-26.483,11.855-26.483,26.483S417.924,123.586,432.552,123.586"/>
		<path style="fill:#CFD2CF;" d="M406.069,414.897c0,14.627,11.855,26.483,26.483,26.483s26.483-11.855,26.483-26.483
			s-11.855-26.483-26.483-26.483S406.069,400.269,406.069,414.897"/>
		<path style="fill:#CFD2CF;" d="M79.448,388.414c-14.627,0-26.483,11.855-26.483,26.483s11.855,26.483,26.483,26.483
			s26.483-11.855,26.483-26.483S94.076,388.414,79.448,388.414"/>
		<path style="fill:#CFD2CF;" d="M26.483,229.517C11.855,229.517,0,241.373,0,256c0,14.627,11.855,26.483,26.483,26.483
			S52.966,270.627,52.966,256C52.966,241.373,41.11,229.517,26.483,229.517"/>
		<path style="fill:#CFD2CF;" d="M485.517,282.483C500.145,282.483,512,270.627,512,256c0-14.627-11.855-26.483-26.483-26.483
			S459.034,241.373,459.034,256C459.034,270.627,470.89,282.483,485.517,282.483"/>
	</g>
</g>
<g>
</g>
<g>
</g>
<g>
</g>
<g>
</g>
<g>
</g>
<g>
</g>
<g>
</g>
<g>
</g>
<g>
</g>
<g>
</g>
<g>
</g>
<g>
</g>
<g>
</g>
<g>
</g>
<g>
</g>
</svg>
