<?xml version="1.0" encoding="iso-8859-1"?>
<!-- Generator: Adobe Illustrator 19.0.0, SVG Export Plug-In . SVG Version: 6.00 Build 0)  -->
<svg version="1.1" id="Layer_1" xmlns="http://www.w3.org/2000/svg" xmlns:xlink="http://www.w3.org/1999/xlink" x="0px" y="0px"
	 viewBox="0 0 512 512" style="enable-background:new 0 0 512 512;" xml:space="preserve">
<g>
	<path style="fill:#8FE5FF;" d="M296.067,251.121l-15.807-9.076v-18.197c0-1.977-1.038-3.81-2.734-4.826
		c-1.697-1.018-3.802-1.068-5.546-0.135l-15.982,8.545l-15.981-8.545c-1.744-0.93-3.848-0.881-5.546,0.135
		c-1.697,1.016-2.734,2.849-2.734,4.826v18.197l-15.807,9.076l0.006,0.023c-0.836,0.48-1.57,1.159-2.085,2.055
		c-1.545,2.696-0.615,6.134,2.079,7.682l15.807,9.071v18.198c0,1.977,1.038,3.81,2.734,4.826c0.889,0.533,1.89,0.8,2.892,0.8
		c0.911,0,1.823-0.221,2.653-0.664l15.981-8.544l15.983,8.544c0.83,0.444,1.743,0.664,2.653,0.664c1.003,0,2.003-0.268,2.892-0.8
		c1.695-1.016,2.734-2.849,2.734-4.826v-18.199l15.782-9.057l0.003-0.001l0.023-0.013l-0.001-0.001
		c0.838-0.48,1.564-1.18,2.079-2.078C299.692,256.106,298.762,252.668,296.067,251.121z M271.833,261.813
		c-1.747,1.004-2.826,2.864-2.826,4.88v12.067l-10.356-5.538c-1.722-0.919-3.705-0.853-5.305,0.003l-0.001-0.003l-10.355,5.538
		v-12.067c0-2.015-1.078-3.877-2.826-4.88l-10.132-5.814l10.132-5.816c1.747-1.003,2.826-2.864,2.826-4.879v-12.065l10.355,5.538
		l0.001-0.003c1.6,0.853,3.583,0.918,5.305,0.003l10.356-5.538v12.065c0,2.014,1.078,3.877,2.826,4.879l10.132,5.816
		L271.833,261.813z"/>
	<path style="fill:#8FE5FF;" d="M476.543,374.705l-29.224-16.58l22.655-13.669c2.661-1.604,3.516-5.064,1.909-7.724
		c-1.604-2.659-5.062-3.515-7.724-1.909l-28.065,16.934l-30.77-17.457l58.185-35.418c2.654-1.615,3.496-5.077,1.88-7.732
		c-1.615-2.656-5.079-3.495-7.732-1.88l-63.535,38.675l-30.897-17.529l22.569-13.738c2.654-1.615,3.496-5.077,1.88-7.732
		c-1.615-2.656-5.077-3.496-7.732-1.88l-27.918,16.996l-37.097-21.046l38.573-22.136c2.694-1.547,3.625-4.985,2.079-7.682
		c-0.514-0.896-1.249-1.577-2.085-2.057l0.006-0.023l-38.475-22.084l37.202-21.106l27.92,16.999
		c0.913,0.556,1.923,0.821,2.921,0.821c1.898,0,3.751-0.963,4.811-2.702c1.615-2.653,0.774-6.115-1.88-7.732l-22.57-13.741
		l30.893-17.528l63.54,38.674c0.915,0.556,1.923,0.821,2.921,0.821c1.899,0,3.752-0.963,4.811-2.702
		c1.615-2.654,0.774-6.116-1.88-7.732l-58.19-35.417l30.897-17.529l27.925,16.996c0.914,0.556,1.923,0.821,2.921,0.821
		c1.899,0,3.752-0.963,4.811-2.702c1.615-2.654,0.774-6.116-1.88-7.732l-22.574-13.739l28.921-16.408
		c2.702-1.534,3.651-4.967,2.117-7.671c-1.534-2.702-4.969-3.648-7.671-2.117l-28.843,16.364v-26.33
		c0-3.107-2.519-5.626-5.626-5.626s-5.626,2.519-5.626,5.626v32.718l-30.845,17.499V99.837c0-3.107-2.519-5.626-5.626-5.626
		s-5.626,2.519-5.626,5.626v74.41l-30.846,17.5v-26.334c0-3.107-2.519-5.626-5.626-5.626s-5.626,2.519-5.626,5.626v32.718
		l-37.721,21.399v-45.224c0-1.977-1.038-3.81-2.734-4.826c-1.697-1.016-3.802-1.068-5.546-0.135l-39.073,20.89v-41.442l28.562-15.9
		c2.716-1.512,3.691-4.937,2.179-7.652c-1.513-2.716-4.94-3.693-7.652-2.179l-23.089,12.852v-35.526l64.993-36.176
		c2.716-1.51,3.691-4.936,2.179-7.652c-1.51-2.716-4.939-3.692-7.652-2.179l-59.519,33.13V51.987l28.562-15.899
		c2.716-1.512,3.691-4.937,2.179-7.652c-1.513-2.716-4.94-3.693-7.652-2.179L261.625,39.11V5.626c0-3.107-2.519-5.626-5.626-5.626
		s-5.626,2.519-5.626,5.626v33.483l-23.088-12.852c-2.711-1.51-6.139-0.536-7.652,2.179c-1.512,2.714-0.536,6.14,2.179,7.652
		l28.56,15.899v35.523l-59.519-33.13c-2.716-1.51-6.141-0.536-7.652,2.179c-1.512,2.714-0.536,6.141,2.179,7.652l64.99,36.176
		v35.523l-23.088-12.852c-2.711-1.51-6.139-0.536-7.652,2.179c-1.512,2.714-0.536,6.14,2.179,7.652l28.56,15.899v41.443
		l-39.072-20.89c-1.744-0.93-3.85-0.881-5.546,0.135c-1.695,1.018-2.733,2.849-2.733,4.826v45.224l-37.721-21.4v-32.716
		c0-3.107-2.519-5.626-5.626-5.626s-5.626,2.519-5.626,5.626v26.332l-30.847-17.499V99.837c0-3.107-2.519-5.626-5.626-5.626
		s-5.626,2.519-5.626,5.626v68.023L81.1,150.36v-32.715c0-3.107-2.519-5.626-5.626-5.626s-5.626,2.519-5.626,5.626v26.331
		l-28.839-16.361c-2.699-1.532-6.136-0.585-7.671,2.117c-1.534,2.703-0.585,6.136,2.117,7.671l28.919,16.406l-22.573,13.741
		c-2.654,1.615-3.496,5.077-1.88,7.732c1.06,1.742,2.912,2.702,4.811,2.702c0.998,0,2.008-0.265,2.921-0.821l27.923-16.998
		l30.9,17.529l-58.19,35.418c-2.654,1.615-3.496,5.077-1.88,7.732c1.059,1.74,2.912,2.702,4.811,2.702
		c0.998,0,2.005-0.265,2.921-0.821l63.54-38.675l30.895,17.528l-22.572,13.742c-2.654,1.617-3.496,5.079-1.88,7.732
		c1.06,1.742,2.912,2.702,4.811,2.702c0.998,0,2.007-0.265,2.921-0.821l27.922-17l37.202,21.106l-38.478,22.084l0.013,0.021
		c-0.839,0.479-1.575,1.16-2.092,2.058c-1.545,2.696-0.615,6.134,2.079,7.682l38.577,22.138l-37.099,21.047l-27.924-16.999
		c-2.651-1.615-6.115-0.774-7.732,1.88c-1.615,2.654-0.774,6.116,1.88,7.732l22.573,13.741l-30.896,17.527L54.339,289.27
		c-2.651-1.614-6.115-0.773-7.732,1.88c-1.615,2.654-0.774,6.116,1.88,7.732l58.187,35.42l-30.898,17.529l-27.922-16.996
		c-2.651-1.615-6.115-0.774-7.732,1.88c-1.615,2.654-0.774,6.116,1.88,7.732l22.572,13.739l-29.121,16.52
		c-2.702,1.534-3.651,4.967-2.117,7.671c1.036,1.825,2.939,2.851,4.899,2.851c0.941,0,1.895-0.236,2.772-0.734l29.044-16.478v26.336
		c0,3.107,2.519,5.626,5.626,5.626s5.626-2.519,5.626-5.626v-32.72l30.845-17.499v68.026c0,3.107,2.519,5.626,5.626,5.626
		s5.626-2.519,5.626-5.626v-74.41l30.843-17.498v26.334c0,3.107,2.519,5.626,5.626,5.626c3.107,0,5.626-2.519,5.626-5.626v-32.718
		l37.523-21.286v45.111c0,1.977,1.038,3.81,2.733,4.825c0.889,0.534,1.89,0.801,2.893,0.801c0.911,0,1.823-0.221,2.652-0.664
		l39.073-20.887v41.676l-28.56,15.896c-2.716,1.512-3.691,4.937-2.179,7.652c1.029,1.849,2.944,2.891,4.921,2.891
		c0.925,0,1.865-0.23,2.732-0.711l23.088-12.852v35.523l-64.99,36.181c-2.716,1.512-3.691,4.937-2.179,7.652
		c1.029,1.849,2.944,2.891,4.921,2.891c0.926,0,1.865-0.23,2.732-0.711l59.519-33.134v35.523l-28.56,15.899
		c-2.716,1.512-3.691,4.937-2.179,7.652c1.029,1.849,2.944,2.891,4.921,2.891c0.926,0,1.865-0.23,2.732-0.711l23.088-12.852v33.253
		c0,3.107,2.519,5.626,5.626,5.626c3.107,0,5.626-2.519,5.626-5.626v-33.253l23.089,12.852c0.865,0.483,1.804,0.711,2.732,0.711
		c1.975,0,3.891-1.043,4.921-2.891c1.512-2.714,0.536-6.14-2.179-7.652l-28.562-15.9v-35.522l59.519,33.134
		c0.865,0.483,1.804,0.711,2.732,0.711c1.975,0,3.891-1.043,4.921-2.891c1.512-2.714,0.536-6.14-2.179-7.652l-64.993-36.181v-35.523
		l23.089,12.852c0.866,0.483,1.804,0.711,2.732,0.711c1.975,0,3.892-1.043,4.921-2.891c1.512-2.716,0.536-6.141-2.179-7.652
		l-28.562-15.897v-41.676l39.074,20.887c0.829,0.443,1.742,0.664,2.652,0.664c1.003,0,2.003-0.268,2.892-0.801
		c1.695-1.015,2.734-2.848,2.734-4.825v-45.113l37.519,21.285v32.721c0,3.107,2.519,5.626,5.626,5.626s5.626-2.519,5.626-5.626
		v-26.336l30.846,17.499v74.412c0,3.107,2.519,5.626,5.626,5.626s5.626-2.519,5.626-5.626v-68.028l30.708,17.423v32.799
		c0,3.107,2.519,5.626,5.626,5.626s5.626-2.519,5.626-5.626v-26.416l29.183,16.556c0.876,0.498,1.83,0.734,2.772,0.734
		c1.958,0,3.863-1.025,4.899-2.851C480.193,379.673,479.245,376.239,476.543,374.705z M300.549,278.294
		c-1.747,1.004-2.826,2.864-2.826,4.88v45.131l-39.074-20.887c-1.718-0.919-3.701-0.853-5.302,0.003l-0.001-0.003l-39.073,20.887
		v-45.131c0-2.015-1.078-3.877-2.826-4.88L172.6,256l38.847-22.296c1.747-1.004,2.826-2.866,2.826-4.88v-45.131l39.072,20.89
		l0.001-0.004c1.6,0.854,3.583,0.92,5.305,0.004l39.073-20.89v45.131c0,2.014,1.078,3.877,2.826,4.879l38.847,22.296
		L300.549,278.294z"/>
</g>
<g>
</g>
<g>
</g>
<g>
</g>
<g>
</g>
<g>
</g>
<g>
</g>
<g>
</g>
<g>
</g>
<g>
</g>
<g>
</g>
<g>
</g>
<g>
</g>
<g>
</g>
<g>
</g>
<g>
</g>
</svg>
