<?xml version="1.0" encoding="iso-8859-1"?>
<!-- Generator: Adobe Illustrator 19.0.0, SVG Export Plug-In . SVG Version: 6.00 Build 0)  -->
<svg version="1.1" id="Layer_1" xmlns="http://www.w3.org/2000/svg" xmlns:xlink="http://www.w3.org/1999/xlink" x="0px" y="0px"
	 viewBox="0 0 512 512" style="enable-background:new 0 0 512 512;" xml:space="preserve">
<g>
	<path style="fill:#CFD2CF;" d="M300.137,176.552v13.992c0,23.887,13.489,45.736,34.842,56.435L352.997,256l-18.017,9.022
		c-21.354,10.699-34.842,32.547-34.842,56.435v13.992l-4.705-3.769c-23.058-18.441-55.808-18.441-78.866,0l-4.705,3.769v-13.912
		c0-23.932-13.533-45.806-34.94-56.488L158.781,256l18.141-9.048c21.407-10.681,34.94-32.556,34.94-56.488v-13.912l4.705,3.769
		c23.058,18.441,55.808,18.441,78.866,0L300.137,176.552z"/>
	<path style="fill:#E4E5E6;" d="M256,238.345c-4.882,0-8.828-3.946-8.828-8.828V52.966c0-4.882,3.946-8.828,8.828-8.828
		s8.828,3.946,8.828,8.828v176.552C264.828,234.399,260.882,238.345,256,238.345"/>
	<path style="fill:#CFD2CF;" d="M273.655,26.483c0,14.627-7.901,26.483-17.655,26.483s-17.655-11.855-17.655-26.483S246.246,0,256,0
		S273.655,11.855,273.655,26.483"/>
	<g>
		<path style="fill:#E4E5E6;" d="M256,114.759c-2.26,0-4.52-0.865-6.241-2.586l-26.483-26.483c-3.452-3.452-3.452-9.031,0-12.482
			c3.452-3.452,9.031-3.452,12.482,0L256,93.449l20.242-20.242c3.452-3.452,9.031-3.452,12.482,0c3.452,3.452,3.452,9.031,0,12.482
			l-26.483,26.483C260.52,113.894,258.26,114.759,256,114.759"/>
		<path style="fill:#E4E5E6;" d="M256,167.724c-2.26,0-4.52-0.865-6.241-2.586L205.621,121c-3.452-3.452-3.452-9.031,0-12.482
			c3.452-3.452,9.031-3.452,12.482,0L256,146.414l37.897-37.897c3.452-3.452,9.031-3.452,12.482,0c3.452,3.452,3.452,9.031,0,12.482
			l-44.138,44.138C260.52,166.859,258.26,167.724,256,167.724"/>
		<path style="fill:#E4E5E6;" d="M256,467.862c-4.882,0-8.828-3.946-8.828-8.828V282.483c0-4.882,3.946-8.828,8.828-8.828
			s8.828,3.946,8.828,8.828v176.552C264.828,463.916,260.882,467.862,256,467.862"/>
	</g>
	<path style="fill:#CFD2CF;" d="M238.345,485.517c0-14.627,7.901-26.483,17.655-26.483s17.655,11.855,17.655,26.483
		S265.754,512,256,512S238.345,500.145,238.345,485.517"/>
	<g>
		<path style="fill:#E4E5E6;" d="M282.483,441.379c-2.26,0-4.52-0.865-6.241-2.586L256,418.551l-20.242,20.242
			c-3.452,3.452-9.031,3.452-12.482,0c-3.452-3.452-3.452-9.031,0-12.482l26.483-26.483c3.452-3.452,9.031-3.452,12.482,0
			l26.483,26.483c3.452,3.452,3.452,9.031,0,12.482C287.003,440.514,284.743,441.379,282.483,441.379"/>
		<path style="fill:#E4E5E6;" d="M300.138,406.069c-2.26,0-4.52-0.865-6.241-2.586L256,365.586l-37.897,37.897
			c-3.452,3.452-9.031,3.452-12.482,0c-3.452-3.452-3.452-9.031,0-12.482l44.138-44.138c3.452-3.452,9.031-3.452,12.482,0
			L306.379,391c3.452,3.452,3.452,9.031,0,12.482C304.658,405.204,302.398,406.069,300.138,406.069"/>
		<path style="fill:#E4E5E6;" d="M274.724,246.103c-2.26,0-4.52-0.865-6.241-2.586c-3.452-3.452-3.452-9.031,0-12.482
			l124.849-124.849c3.443-3.443,9.031-3.443,12.482,0c3.443,3.452,3.443,9.039,0,12.482L280.965,243.517
			C279.244,245.238,276.984,246.103,274.724,246.103"/>
	</g>
	<path style="fill:#CFD2CF;" d="M430.777,106.191c-10.346,10.346-24.311,13.135-31.214,6.241c-6.894-6.894-4.096-20.868,6.25-31.206
		c10.337-10.346,24.311-13.144,31.206-6.25C443.913,81.879,441.123,95.845,430.777,106.191"/>
	<g>
		<path style="fill:#E4E5E6;" d="M397.241,158.716h-35.125c-4.882,0-8.828-3.946-8.828-8.828v-35.125
			c0-4.882,3.946-8.828,8.828-8.828c4.873,0,8.828,3.946,8.828,8.828v26.297h26.297c4.882,0,8.828,3.946,8.828,8.828
			S402.123,158.716,397.241,158.716"/>
		<path style="fill:#E4E5E6;" d="M388.414,194.207h-61.793c-4.882,0-8.828-3.946-8.828-8.828v-61.793
			c0-4.882,3.946-8.828,8.828-8.828c4.882,0,8.828,3.946,8.828,8.828v52.966h52.966c4.882,0,8.828,3.946,8.828,8.828
			C397.241,190.261,393.295,194.207,388.414,194.207"/>
		<path style="fill:#E4E5E6;" d="M112.431,408.397c-2.26,0-4.52-0.865-6.241-2.586c-3.452-3.452-3.452-9.031,0-12.482
			L231.038,268.48c3.443-3.443,9.031-3.443,12.482,0c3.443,3.452,3.443,9.039,0,12.482L118.672,405.81
			C116.951,407.532,114.691,408.397,112.431,408.397"/>
	</g>
	<path style="fill:#CFD2CF;" d="M81.223,405.809c10.346-10.346,24.311-13.135,31.214-6.241c6.894,6.894,4.096,20.868-6.25,31.206
		c-10.337,10.346-24.311,13.144-31.206,6.25C68.087,430.121,70.877,416.155,81.223,405.809"/>
	<g>
		<path style="fill:#E4E5E6;" d="M149.888,406.069c-4.882,0-8.828-3.946-8.828-8.828v-26.297h-26.297
			c-4.882,0-8.828-3.955-8.828-8.828c0-4.882,3.946-8.828,8.828-8.828h35.125c4.882,0,8.828,3.946,8.828,8.828v35.125
			C158.716,402.123,154.77,406.069,149.888,406.069"/>
		<path style="fill:#E4E5E6;" d="M185.379,397.241c-4.882,0-8.828-3.946-8.828-8.828V335.36h-52.966
			c-4.882,0-8.828-3.946-8.828-8.828c0-4.882,3.946-8.828,8.828-8.828h61.793c4.882,0,8.828,3.946,8.828,8.828v61.881
			C194.207,393.295,190.261,397.241,185.379,397.241"/>
		<path style="fill:#E4E5E6;" d="M399.569,408.397c-2.26,0-4.52-0.865-6.241-2.586L268.48,280.962
			c-3.443-3.443-3.443-9.031,0-12.482c3.452-3.443,9.039-3.443,12.482,0L405.81,393.328c3.452,3.452,3.452,9.031,0,12.482
			C404.089,407.532,401.829,408.397,399.569,408.397"/>
	</g>
	<path style="fill:#CFD2CF;" d="M405.809,430.777c-10.346-10.346-13.135-24.32-6.241-31.214c6.894-6.894,20.868-4.096,31.206,6.25
		c10.346,10.337,13.144,24.311,6.25,31.206C430.129,443.913,416.155,441.123,405.809,430.777"/>
	<g>
		<path style="fill:#E4E5E6;" d="M362.112,406.069c-4.882,0-8.828-3.946-8.828-8.828v-35.125c0-4.882,3.946-8.828,8.828-8.828
			h35.125c4.882,0,8.828,3.946,8.828,8.828c0,4.873-3.946,8.828-8.828,8.828H370.94v26.297
			C370.94,402.123,366.994,406.069,362.112,406.069"/>
		<path style="fill:#E4E5E6;" d="M326.621,397.241h-0.009c-4.882-0.009-8.828-3.964-8.819-8.836l0.088-61.793
			c0.009-4.873,3.955-8.819,8.828-8.819h61.705c4.882,0,8.828,3.946,8.828,8.828c0,4.882-3.946,8.828-8.828,8.828h-52.886
			l-0.079,52.974C335.439,393.295,331.493,397.241,326.621,397.241"/>
		<path style="fill:#E4E5E6;" d="M237.276,246.103c-2.26,0-4.52-0.865-6.241-2.586L106.186,118.668
			c-3.443-3.443-3.443-9.031,0-12.482c3.452-3.443,9.039-3.443,12.482,0l124.849,124.849c3.452,3.452,3.452,9.031,0,12.482
			C241.796,245.238,239.536,246.103,237.276,246.103"/>
	</g>
	<path style="fill:#CFD2CF;" d="M106.191,81.223c10.346,10.346,13.135,24.32,6.241,31.214c-6.894,6.894-20.868,4.096-31.206-6.25
		C70.88,95.85,68.082,81.876,74.976,74.982C81.871,68.087,95.845,70.877,106.191,81.223"/>
	<g>
		<path style="fill:#E4E5E6;" d="M149.888,158.716h-35.125c-4.882,0-8.828-3.946-8.828-8.828s3.946-8.828,8.828-8.828h26.297
			v-26.297c0-4.882,3.946-8.828,8.828-8.828s8.828,3.946,8.828,8.828v35.125C158.716,154.77,154.77,158.716,149.888,158.716"/>
		<path style="fill:#E4E5E6;" d="M185.379,194.207h-61.793c-4.882,0-8.828-3.946-8.828-8.828c0-4.882,3.946-8.828,8.828-8.828
			h52.966v-52.966c0-4.882,3.946-8.828,8.828-8.828c4.882,0,8.828,3.946,8.828,8.828v61.793
			C194.207,190.261,190.261,194.207,185.379,194.207"/>
		<path style="fill:#E4E5E6;" d="M459.034,264.828H282.483c-4.882,0-8.828-3.946-8.828-8.828s3.946-8.828,8.828-8.828h176.552
			c4.882,0,8.828,3.946,8.828,8.828S463.916,264.828,459.034,264.828"/>
	</g>
	<path style="fill:#CFD2CF;" d="M485.517,273.655c-14.627,0-26.483-7.901-26.483-17.655s11.855-17.655,26.483-17.655
		S512,246.246,512,256S500.145,273.655,485.517,273.655"/>
	<g>
		<path style="fill:#E4E5E6;" d="M432.552,291.31c-2.26,0-4.52-0.865-6.241-2.586l-26.483-26.483c-3.452-3.452-3.452-9.031,0-12.482
			l26.483-26.483c3.452-3.452,9.031-3.452,12.482,0c3.452,3.452,3.452,9.031,0,12.482L418.551,256l20.242,20.242
			c3.452,3.452,3.452,9.031,0,12.482C437.071,290.445,434.812,291.31,432.552,291.31"/>
		<path style="fill:#E4E5E6;" d="M397.241,308.966c-2.26,0-4.52-0.865-6.241-2.586l-44.138-44.138
			c-3.452-3.452-3.452-9.031,0-12.482L391,205.621c3.452-3.452,9.031-3.452,12.482,0c3.452,3.452,3.452,9.031,0,12.482L365.586,256
			l37.897,37.897c3.452,3.452,3.452,9.031,0,12.482C401.761,308.1,399.501,308.966,397.241,308.966"/>
		<path style="fill:#E4E5E6;" d="M229.517,264.828H52.966c-4.882,0-8.828-3.946-8.828-8.828s3.946-8.828,8.828-8.828h176.552
			c4.882,0,8.828,3.946,8.828,8.828S234.399,264.828,229.517,264.828"/>
	</g>
	<path style="fill:#CFD2CF;" d="M26.483,238.345c14.627,0,26.483,7.901,26.483,17.655s-11.855,17.655-26.483,17.655S0,265.754,0,256
		S11.855,238.345,26.483,238.345"/>
	<g>
		<path style="fill:#E4E5E6;" d="M79.448,291.31c-2.26,0-4.52-0.865-6.241-2.586c-3.452-3.452-3.452-9.031,0-12.482L93.449,256
			l-20.242-20.242c-3.452-3.452-3.452-9.031,0-12.482c3.452-3.452,9.031-3.452,12.482,0l26.483,26.483
			c3.452,3.452,3.452,9.031,0,12.482l-26.483,26.483C83.968,290.445,81.708,291.31,79.448,291.31"/>
		<path style="fill:#E4E5E6;" d="M114.759,308.966c-2.26,0-4.52-0.865-6.241-2.586c-3.452-3.452-3.452-9.031,0-12.482L146.414,256
			l-37.897-37.897c-3.452-3.452-3.452-9.031,0-12.482c3.452-3.452,9.031-3.452,12.482,0l44.138,44.138
			c3.452,3.452,3.452,9.031,0,12.482L121,306.379C119.278,308.1,117.018,308.966,114.759,308.966"/>
		<path style="fill:#E4E5E6;" d="M282.483,256c0-14.627-11.855-26.483-26.483-26.483c-14.627,0-26.483,11.855-26.483,26.483
			c0,14.627,11.855,26.483,26.483,26.483C270.627,282.483,282.483,270.627,282.483,256"/>
	</g>
</g>
<g>
</g>
<g>
</g>
<g>
</g>
<g>
</g>
<g>
</g>
<g>
</g>
<g>
</g>
<g>
</g>
<g>
</g>
<g>
</g>
<g>
</g>
<g>
</g>
<g>
</g>
<g>
</g>
<g>
</g>
</svg>
