<?xml version="1.0" encoding="iso-8859-1"?>
<!-- Generator: Adobe Illustrator 19.0.0, SVG Export Plug-In . SVG Version: 6.00 Build 0)  -->
<svg version="1.1" id="Layer_1" xmlns="http://www.w3.org/2000/svg" xmlns:xlink="http://www.w3.org/1999/xlink" x="0px" y="0px"
	 viewBox="0 0 512.003 512.003" style="enable-background:new 0 0 512.003 512.003;" xml:space="preserve">
<path style="fill:#8FE5FF;" d="M506.362,250.363H421.58l51.049-41.085c2.426-1.953,2.809-5.503,0.858-7.927
	c-1.954-2.426-5.505-2.81-7.927-0.858l-61.964,49.87h-26.359v-15.183c0-3.113-2.525-5.638-5.638-5.638
	c-3.113,0-5.638,2.525-5.638,5.638v15.183h-96.352l68.128-68.132l10.74,10.742c1.101,1.101,2.543,1.651,3.988,1.651
	c1.442,0,2.885-0.55,3.987-1.65c2.203-2.203,2.203-5.771,0.001-7.973l-10.741-10.742l20.244-20.245c2.203-2.201,2.203-5.772,0-7.972
	c-2.203-2.203-5.772-2.203-7.972,0l-20.242,20.244l-10.734-10.737c-2.201-2.201-5.769-2.203-7.973-0.001
	c-2.203,2.203-2.203,5.772-0.001,7.973l10.736,10.738L261.64,242.39v-96.349h15.185c3.113,0,5.638-2.525,5.638-5.638
	s-2.525-5.638-5.638-5.638H261.64v-26.363l49.876-61.969c1.952-2.426,1.569-5.975-0.858-7.927c-2.423-1.951-5.974-1.567-7.927,0.858
	L261.64,90.419V5.639c0-3.113-2.525-5.638-5.638-5.638c-3.113,0-5.638,2.525-5.638,5.638v84.78l-41.09-51.054
	c-1.956-2.426-5.504-2.81-7.927-0.858c-2.426,1.953-2.809,5.503-0.858,7.927l49.875,61.969v26.361h-15.185
	c-3.113,0-5.638,2.525-5.638,5.638s2.525,5.638,5.638,5.638h15.185v96.349l-68.129-68.131l10.736-10.738
	c2.201-2.203,2.201-5.771-0.001-7.973c-2.203-2.2-5.772-2.201-7.973,0.001l-10.733,10.736l-20.242-20.242
	c-2.2-2.203-5.772-2.203-7.972,0c-2.203,2.201-2.203,5.771,0,7.972l20.242,20.244L155.55,185c-2.201,2.203-2.201,5.771,0.001,7.973
	c1.101,1.1,2.543,1.65,3.987,1.65c1.442,0,2.887-0.55,3.988-1.651l10.74-10.742l68.129,68.132h-96.354v-15.183
	c0-3.113-2.525-5.638-5.638-5.638s-5.638,2.525-5.638,5.638v15.183h-26.364l-61.966-49.87c-2.424-1.952-5.975-1.567-7.927,0.858
	c-1.952,2.427-1.569,5.974,0.858,7.927l51.05,41.085H5.638c-3.113,0-5.638,2.525-5.638,5.638s2.525,5.638,5.638,5.638h84.78
	l-51.052,41.09c-2.427,1.953-2.809,5.503-0.858,7.927c1.115,1.384,2.748,2.104,4.396,2.104c1.24,0,2.489-0.407,3.531-1.245
	l61.966-49.875h26.359v15.186c0,3.113,2.525,5.638,5.638,5.638c3.113,0,5.638-2.525,5.638-5.638v-15.186h96.352l-68.129,68.132
	l-10.738-10.74c-2.203-2.203-5.771-2.201-7.973-0.001c-2.203,2.203-2.203,5.771-0.001,7.973l10.74,10.742l-20.241,20.241
	c-2.203,2.201-2.203,5.771,0,7.972c1.101,1.101,2.543,1.651,3.987,1.651c1.442,0,2.887-0.55,3.987-1.651l20.24-20.241l10.736,10.737
	c1.101,1.101,2.545,1.651,3.988,1.651c1.443,0,2.885-0.55,3.987-1.65c2.203-2.203,2.203-5.772,0.001-7.973l-10.737-10.738
	l68.131-68.133v96.352h-15.185c-3.113,0-5.638,2.525-5.638,5.638c0,3.113,2.525,5.638,5.638,5.638h15.185V403.6l-49.875,61.96
	c-1.952,2.426-1.569,5.975,0.858,7.927c1.041,0.838,2.29,1.245,3.531,1.245c1.648,0,3.281-0.719,4.396-2.104l41.09-51.048v84.782
	c0,3.113,2.525,5.638,5.638,5.638c3.113,0,5.638-2.525,5.638-5.638v-84.782l41.091,51.048c1.115,1.383,2.747,2.104,4.396,2.104
	c1.24,0,2.489-0.407,3.531-1.245c2.426-1.953,2.809-5.503,0.858-7.927l-49.876-61.96v-26.363h15.185
	c3.113,0,5.638-2.525,5.638-5.638c0-3.113-2.525-5.638-5.638-5.638h-15.185v-96.35l68.129,68.132l-10.737,10.74
	c-2.201,2.203-2.201,5.772,0.001,7.973c1.101,1.1,2.543,1.65,3.987,1.65c1.443,0,2.887-0.55,3.988-1.651l10.736-10.737
	l20.241,20.241c1.1,1.101,2.543,1.651,3.987,1.651c1.442,0,2.887-0.55,3.987-1.651c2.203-2.201,2.203-5.771,0-7.972l-20.242-20.242
	l10.74-10.741c2.201-2.203,2.201-5.772-0.001-7.973c-2.203-2.2-5.771-2.201-7.973,0.001l-10.737,10.74l-68.129-68.132h96.351v15.186
	c0,3.113,2.525,5.638,5.638,5.638s5.638-2.525,5.638-5.638V261.64h26.359l61.964,49.875c1.041,0.838,2.29,1.245,3.531,1.245
	c1.648,0,3.281-0.719,4.396-2.104c1.952-2.426,1.569-5.974-0.858-7.927l-51.05-41.09h84.784c3.113,0,5.638-2.525,5.638-5.638
	C512.003,252.889,509.475,250.363,506.362,250.363z"/>
<g>
</g>
<g>
</g>
<g>
</g>
<g>
</g>
<g>
</g>
<g>
</g>
<g>
</g>
<g>
</g>
<g>
</g>
<g>
</g>
<g>
</g>
<g>
</g>
<g>
</g>
<g>
</g>
<g>
</g>
</svg>
